# xmcd CD database file
#
# Track frame offsets:
#	150
#	18342
#	33845
#	48795
#	59570
#	71181
#	84330
#	99034
#	116541
#	131807
#	142193
#	160330
#	175562
#	187670
#	203130
#	219010
#
# Disc length: 3235 seconds
#
# Revision: 0
# Processed by: cddbd v1.4PL0 Copyright (c) Steve Scherf et al.
# Submitted via: CDex 1.50Beta6
#
DISCID=cf0ca110
DTITLE=Leon Rausch and Tommy Allsup - A Tribute to Bob Wills 3
DYEAR=1997
DGENRE=Country
TTITLE0=San Antonio Rose
TTITLE1=The King of Love
TTITLE2=Deep Water
TTITLE3=I Can't Go On This Way
TTITLE4=Sugar Moon
TTITLE5=Party For The Old Folks
TTITLE6=Worried Over You
TTITLE7=Right Or Wrong
TTITLE8=Keeper of My Heart
TTITLE9=Li'l Liza Jane
TTITLE10=King Without a Queen
TTITLE11=It's The Bottle Talking
TTITLE12=Stay All Night, Stay a Little Longer
TTITLE13=Blues For Dixie
TTITLE14=Goodnight Little Sweetheart
TTITLE15=Under the Double Eagle
EXTD=YEAR: 1997
EXTT0=
EXTT1=
EXTT2=
EXTT3=
EXTT4=
EXTT5=
EXTT6=
EXTT7=
EXTT8=
EXTT9=
EXTT10=
EXTT11=
EXTT12=
EXTT13=
EXTT14=
EXTT15=
PLAYORDER=
